PathFileType	4	(x/y/z)	A01_SLOW_T0026.trc
DataRate	CameraRate	NumFrames	NumMarkers	Units	OrigDataRate	OrigDataStartFrame	OrigNumFrames
240	240	4	48	mm	240	226	361
Frame#	Time	TOP_HEAD			R_AC			L_AC			R_ASIS			L_ASIS			R_PSIS			L_PSIS			SACRAL			L_IC			R_IC			L_GT			R_GT			R_LAT_KNEE			R_MED_KNEE			L_MED_KNEE			L_LAT_KNEE			R_TOE			L_TOE			R_1ST_MET			L_1ST_MET			L_5TH_MET			R_5TH_MET			R_LAT_ANK			R_MED_ANK			L_MED_ANK			L_LAT_ANK			L_HEEL_SUP			R_HEEL_SUP			L_HEEL_LAT			R_HEEL_LAT			L_HEEL_MED			R_HEEL_MED			R_LL_PROX_POST			R_LL_PROX_ANT			R_LL_DIST_ANT			R_LL_DIST_POST			R_THIGH_PROX_POST			R_THIGH_PROX_ANT			R_THIGH_DIST_ANT			R_THIGH_DIST_POST			L_PROS_PROX_ANT			L_PROS_PROX_POST			L_PROS_DIST_POST			L_PROS_DIST_ANT			L_THIGH_PROX_ANT			L_THIGH_PROX_POST			L_THIGH_DIST_POST			L_THIGH_DIST_ANT			
		X1	Y1	Z1	X2	Y2	Z2	X3	Y3	Z3	X4	Y4	Z4	X5	Y5	Z5	X6	Y6	Z6	X7	Y7	Z7	X8	Y8	Z8	X9	Y9	Z9	X10	Y10	Z10	X11	Y11	Z11	X12	Y12	Z12	X13	Y13	Z13	X14	Y14	Z14	X15	Y15	Z15	X16	Y16	Z16	X17	Y17	Z17	X18	Y18	Z18	X19	Y19	Z19	X20	Y20	Z20	X21	Y21	Z21	X22	Y22	Z22	X23	Y23	Z23	X24	Y24	Z24	X25	Y25	Z25	X26	Y26	Z26	X27	Y27	Z27	X28	Y28	Z28	X29	Y29	Z29	X30	Y30	Z30	X31	Y31	Z31	X32	Y32	Z32	X33	Y33	Z33	X34	Y34	Z34	X35	Y35	Z35	X36	Y36	Z36	X37	Y37	Z37	X38	Y38	Z38	X39	Y39	Z39	X40	Y40	Z40	X41	Y41	Z41	X42	Y42	Z42	X43	Y43	Z43	X44	Y44	Z44	X45	Y45	Z45	X46	Y46	Z46	X47	Y47	Z47	X48	Y48	Z48	

226	0.9401	374.92	1760.8	370.44	172.06	1505.7	594.4	147.91	1552.3	134.75	185.32	1078.8	545.47	159.68	1003.9	196.01	-40.856	1070.9	438.93	-38	1075	305.46	-56.502	1043.8	372.09	140.98	1141.4	163.68	147.18	1157.4	563.43	84.617	928.62	160.38	137.29	965.09	591.36	238.41	569.33	520.47	259.97	575.32	389.1	64.184	512.11	357.84	35.438	539.89	205.2	490.29	74.687	416.38	-190.32	59.806	265.7	405.68	56.127	372.33	-259	92.554	329.89	-299.33	113.86	208.36	382.9	45.993	508.3	264.98	104.43	486.33	260.78	110.16	384.25	-285.78	241.57	324.12	-321.43	260.04	262.09	-412.93	279.93	315.75	161.62	67.901	433.19	-432.16	256.98	284.39	171.14	44.453	467.6	-418.8	245.64	346.49	172.85	41.677	407.74	169.18	383.16	526.22	240.85	381.72	540.1	250.94	308.9	521.52	195.44	304.84	513.49	134.67	815.07	569.73	198.07	851.29	575.87	224.31	764.49	563.02	163.71	730.87	554.81	9.917	449.41	216.1	-29.784	488.24	211.14	-77.985	448.67	223.65	-34.784	415.65	226.28	125.66	779.17	192.25	57.009	794.66	178.21	58.051	718.47	187.16	120.41	705.45	199.66
227	0.94428	379.74	1761.2	371.74	177.53	1506.2	594.97	152.28	1553.1	135.42	190.04	1079.1	546.25	164.39	1004.6	196.67	-36.2	1071.4	439.58	-33.4	1075.2	306.11	-51.776	1044	372.76	145.96	1142.3	164.58	152.22	1157.9	563.94	89.737	929.1	160.89	141.72	965.44	591.94	241.13	569.34	520.93	263.23	575.47	389.58	73.347	511.41	356.9	43.547	540.46	204.7	490.5	74.278	416.4	-186.56	60.962	264.01	405.8	56.115	372.28	-254.3	94.629	328.97	-295.27	117.45	208.03	382.93	45.982	508.36	265.23	104.49	486.22	261.01	110.2	384.18	-279.43	244.26	324.44	-315.37	263.4	262.79	-405.47	284.48	317.48	161.74	68.119	433.18	-425.34	262.06	286.09	171.19	44.669	467.6	-411.7	250.1	348.01	172.96	41.878	407.74	170.79	383.59	526.14	242.42	381.74	540.23	252.16	308.87	521.57	196.69	305.14	513.33	138.31	815.47	570.14	201.85	851.4	576.58	227.76	764.49	563.76	167.04	731.15	555.29	17.301	450.15	215.24	-22.07	489.34	210.85	-70.535	450.1	223.51	-27.619	416.7	225.55	131.82	779.89	192.09	63.018	794.89	178.26	64.672	718.69	186.94	127.16	706.11	199.24
228	0.94846	384.54	1761.7	373.01	182.96	1506.8	595.51	156.59	1554	136.07	194.74	1079.5	546.98	169.07	1005.3	197.3	-31.58	1071.8	440.22	-28.84	1075.3	306.75	-47.087	1044.3	373.43	150.91	1143.3	165.47	157.25	1158.3	564.43	94.816	929.62	161.38	146.13	965.82	592.49	243.78	569.36	521.39	266.4	575.6	390.08	82.559	510.77	355.94	51.648	541.17	204.23	490.7	73.909	416.4	-182.49	62.292	262.12	405.91	56.116	372.24	-249.27	96.71	327.91	-290.94	121.08	207.61	382.96	45.982	508.41	265.46	104.56	486.13	261.22	110.25	384.11	-272.87	246.86	324.74	-309.12	266.7	263.49	-397.81	288.84	319.25	161.86	68.336	433.17	-418.31	266.95	287.85	171.23	44.881	467.61	-404.34	254.34	349.55	173.06	42.08	407.75	172.35	384.02	526.09	243.95	381.77	540.38	253.34	308.86	521.63	197.9	305.43	513.19	141.93	815.89	570.55	205.59	851.53	577.26	231.17	764.51	564.48	170.32	731.46	555.77	24.723	451.01	214.36	-14.332	490.54	210.58	-63.029	451.61	223.39	-20.392	417.85	224.81	137.96	780.66	191.91	69.011	795.17	178.3	71.286	718.97	186.71	133.91	706.83	198.8
229	0.95264	389.34	1762.2	374.25	188.36	1507.4	596.03	160.85	1554.8	136.68	199.41	1079.9	547.68	173.72	1006.1	197.9	-26.998	1072.3	440.85	-24.316	1075.5	307.39	-42.434	1044.5	374.09	155.83	1144.2	166.35	162.28	1158.8	564.91	99.857	930.18	161.84	150.5	966.25	593.01	246.36	569.39	521.84	269.48	575.71	390.59	91.815	510.19	354.95	59.742	542.02	203.77	490.88	73.574	416.41	-178.12	63.784	260.05	406.01	56.127	372.2	-243.9	98.783	326.72	-286.35	124.72	207.11	382.98	45.988	508.46	265.69	104.64	486.06	261.42	110.32	384.06	-266.11	249.36	325.02	-302.68	269.92	264.2	-389.98	292.97	321.06	161.97	68.554	433.17	-411.08	271.61	289.66	171.28	45.091	467.62	-396.76	258.34	351.12	173.16	42.283	407.75	173.86	384.46	526.08	245.44	381.81	540.56	254.5	308.86	521.7	199.08	305.74	513.08	145.52	816.34	570.97	209.29	851.69	577.92	234.53	764.56	565.17	173.55	731.79	556.25	32.184	451.99	213.46	-6.5679	491.85	210.33	-55.467	453.19	223.28	-13.102	419.1	224.04	144.09	781.48	191.71	74.995	795.5	178.34	77.896	719.3	186.47	140.64	707.61	198.35
